<?xml version="1.0" standalone="no"?>
<!DOCTYPE svg PUBLIC "-//W3C//DTD SVG 20010904//EN"
 "http://www.w3.org/TR/2001/REC-SVG-20010904/DTD/svg10.dtd">
<svg version="1.0" xmlns="http://www.w3.org/2000/svg"
 width="125.000000pt" height="125.000000pt" viewBox="0 0 125.000000 125.000000"
 preserveAspectRatio="xMidYMid meet">
<g transform="translate(0.000000,125.000000) scale(0.100000,-0.100000)"
fill="#ffeead" stroke="none">
<path d="M505 1211 c-213 -53 -374 -198 -441 -398 -70 -208 -23 -433 125 -594
119 -130 245 -189 421 -197 188 -8 313 40 446 172 133 132 191 277 182 456
-14 280 -210 507 -486 565 -93 19 -159 18 -247 -4z m247 -52 c150 -31 296
-142 366 -277 50 -97 66 -165 65 -269 -2 -147 -55 -275 -158 -378 -298 -301
-815 -160 -920 250 -35 137 -8 314 66 430 71 112 197 204 330 239 65 18 179
20 251 5z"/>
<path d="M570 1089 c-211 -31 -368 -187 -401 -398 -26 -170 42 -339 178 -443
80 -60 158 -89 257 -96 135 -8 254 33 355 124 86 78 151 222 151 335 0 175
-101 349 -248 427 -50 27 -188 64 -224 61 -7 -1 -38 -5 -68 -10z m40 -74 c0
-20 5 -25 25 -25 20 0 25 5 25 26 0 26 1 27 47 20 54 -7 148 -48 180 -78 22
-20 22 -23 6 -40 -15 -17 -15 -19 2 -38 l19 -21 20 20 20 20 33 -45 c31 -45
56 -106 67 -171 5 -29 3 -32 -22 -35 -41 -5 -43 -44 -3 -53 28 -6 29 -9 24
-43 -6 -44 -52 -147 -81 -182 -19 -24 -21 -24 -39 -7 -19 16 -21 16 -38 -2
-16 -19 -16 -21 0 -38 17 -16 16 -18 -16 -45 -39 -33 -127 -68 -178 -71 -30
-2 -36 1 -39 21 -5 34 -52 31 -52 -3 0 -18 -5 -25 -20 -25 -36 0 -142 40 -187
72 -42 29 -44 31 -27 49 14 16 15 21 3 36 -7 10 -15 20 -16 22 -2 2 -12 -4
-24 -15 -21 -19 -21 -19 -41 6 -32 38 -70 128 -76 176 -4 39 -2 43 19 46 18 2
25 10 27 31 3 23 0 27 -24 27 -26 0 -26 2 -22 44 6 48 44 138 76 176 19 24 21
24 39 7 19 -16 21 -16 37 2 15 16 15 22 5 39 -10 17 -10 23 1 37 28 33 147 83
203 84 22 1 27 -3 27 -24z"/>
<path d="M590 715 l0 -55 -120 0 -120 0 0 -35 0 -35 155 0 155 0 0 90 0 90
-35 0 -35 0 0 -55z"/>
</g>
</svg>
