<?xml version="1.0" standalone="no"?>
<!DOCTYPE svg PUBLIC "-//W3C//DTD SVG 20010904//EN"
 "http://www.w3.org/TR/2001/REC-SVG-20010904/DTD/svg10.dtd">
<svg version="1.0" xmlns="http://www.w3.org/2000/svg"
 width="300.000000pt" height="192.000000pt" viewBox="0 0 300.000000 192.000000"
 preserveAspectRatio="xMidYMid meet">
<g transform="translate(0.000000,192.000000) scale(0.100000,-0.100000)"
fill="#ffeead" stroke="none">
<path d="M962 1868 c-18 -18 -17 -781 1 -797 9 -6 84 -12 203 -13 l189 -3 3
-27 c2 -19 -2 -28 -17 -33 -12 -3 -21 -13 -21 -21 0 -8 -9 -14 -20 -14 -11 0
-20 -6 -20 -12 0 -10 -72 -14 -320 -16 l-319 -3 -21 23 c-12 13 -28 31 -37 41
-10 10 -31 17 -54 17 -20 0 -41 6 -46 13 -6 6 -31 59 -57 116 l-48 104 70 70
c81 81 85 81 126 -9 14 -30 32 -57 41 -61 12 -4 44 21 111 88 52 52 93 98 91
103 -2 5 -40 30 -85 55 -45 25 -98 61 -117 79 -20 17 -46 32 -59 32 -33 0
-110 -84 -103 -112 5 -16 -12 -39 -71 -99 -42 -44 -82 -79 -88 -79 -19 0 -44
-35 -44 -62 0 -14 8 -36 19 -49 10 -13 37 -61 60 -106 29 -60 37 -83 27 -83
-8 0 -30 -18 -49 -40 l-34 -40 -108 0 -108 0 7 -37 c3 -21 6 -57 6 -80 l0 -43
75 0 75 0 0 -360 c0 -281 3 -360 13 -361 14 -1 138 -1 150 0 4 1 7 163 7 361
l0 360 1100 0 1100 0 2 -363 3 -362 35 -2 c19 -1 54 1 77 3 l43 5 2 357 3 357
80 5 80 5 0 80 0 80 -147 5 c-107 4 -145 8 -140 16 4 7 18 14 32 15 23 4 25 9
28 62 3 63 -8 87 -39 87 -14 0 -19 7 -19 30 l0 30 -106 0 -105 0 3 -119 3
-119 -44 -6 c-68 -9 -91 -7 -91 8 0 7 -11 25 -25 38 -22 22 -34 25 -93 25 -58
0 -70 -3 -89 -24 -13 -13 -23 -28 -23 -34 0 -5 -75 -9 -184 -9 l-184 0 -31 32
c-20 20 -31 42 -31 60 l0 28 161 0 c104 0 158 3 154 10 -3 5 -1 10 4 10 6 0
11 -4 11 -10 0 -5 11 -10 25 -10 18 0 28 7 35 26 6 15 10 179 10 394 0 322 -2
371 -16 384 -14 14 -75 16 -528 16 -385 0 -515 -3 -524 -12z m668 -113 c0 -13
-39 -15 -290 -15 -251 0 -290 2 -290 15 0 13 39 15 290 15 251 0 290 -2 290
-15z m-260 -60 c0 -13 -24 -15 -160 -15 -136 0 -160 2 -160 15 0 13 24 15 160
15 136 0 160 -2 160 -15z m78 -52 c3 -10 -41 -13 -197 -13 -173 0 -201 2 -201
15 0 13 26 15 197 13 146 -2 197 -6 201 -15z m-238 -128 c0 -12 -16 -15 -80
-15 -64 0 -80 3 -80 15 0 12 16 15 80 15 64 0 80 -3 80 -15z m40 -60 c0 -12
-18 -15 -100 -15 -82 0 -100 3 -100 15 0 12 18 15 100 15 82 0 100 -3 100 -15z
m-902 -201 c4 -27 -21 -47 -48 -39 -20 6 -28 44 -13 59 15 15 58 1 61 -20z
m2308 -204 c1 -28 -3 -40 -12 -40 -10 0 -14 13 -14 40 0 26 5 40 13 40 8 0 13
-15 13 -40z"/>
</g>
</svg>
