<?xml version="1.0" standalone="no"?>
<!DOCTYPE svg PUBLIC "-//W3C//DTD SVG 20010904//EN"
 "http://www.w3.org/TR/2001/REC-SVG-20010904/DTD/svg10.dtd">
<svg version="1.0" xmlns="http://www.w3.org/2000/svg"
 width="100.000000pt" height="125.000000pt" viewBox="0 0 100.000000 125.000000"
 preserveAspectRatio="xMidYMid meet">
<metadata>
Created by potrace 1.10, written by Peter Selinger 2001-2011
</metadata>
<g transform="translate(0.000000,125.000000) scale(0.100000,-0.100000)"
fill="#ffeead" stroke="none">
<path d="M60 625 l0 -555 438 2 437 3 3 553 2 552 -440 0 -440 0 0 -555z m643
518 c-111 -2 -295 -2 -410 0 -114 1 -24 2 202 2 226 0 319 -1 208 -2z m-606
-776 c-1 -139 -2 -22 -2 258 0 281 1 394 2 252 2 -142 2 -372 0 -510z m306
726 c-45 -2 -122 -2 -170 0 -48 1 -11 3 82 3 94 0 133 -2 88 -3z m280 0 l-163
-3 -3 -223 -2 -222 -3 228 -2 227 168 -2 167 -2 -162 -3z m-233 -218 l0 -195
-135 0 -135 0 0 195 0 195 135 0 135 0 0 -195z m363 -3 l2 -192 -137 0 -138 0
0 195 0 196 135 -3 136 -3 2 -193z m-490 -705 l162 -3 -167 -2 -168 -2 2 228
3 227 2 -222 3 -223 163 -3z m357 3 l160 0 3 223 2 222 3 -227 2 -228 -170 0
-170 0 2 228 3 227 2 -222 3 -223 160 0z m-230 215 l0 -195 -135 0 -135 0 0
195 0 195 135 0 135 0 0 -195z m370 0 l0 -196 -137 3 -138 3 -2 193 -2 192
140 0 139 0 0 -195z"/>
</g>
</svg>
